<svg width="16" height="11" viewBox="0 0 16 11" fill="none" xmlns="http://www.w3.org/2000/svg">
<path d="M8.00046 10.2147C7.81157 10.2147 7.62835 10.1793 7.45079 10.1085C7.27323 10.0376 7.1259 9.94318 7.00879 9.82513L0.492122 3.30846C0.2324 3.04874 0.102539 2.71818 0.102539 2.3168C0.102539 1.91541 0.2324 1.58485 0.492122 1.32513C0.751844 1.06541 1.0824 0.935547 1.48379 0.935547C1.88518 0.935547 2.21573 1.06541 2.47546 1.32513L8.00046 6.85013L13.5255 1.32513C13.7852 1.06541 14.1157 0.935547 14.5171 0.935547C14.9185 0.935547 15.2491 1.06541 15.5088 1.32513C15.7685 1.58485 15.8984 1.91541 15.8984 2.3168C15.8984 2.71818 15.7685 3.04874 15.5088 3.30846L8.99212 9.82513C8.85046 9.9668 8.69698 10.0674 8.5317 10.1269C8.36643 10.1864 8.18934 10.2157 8.00046 10.2147Z" fill="#FBB24A"/>
</svg>
